<?xml version="1.0" encoding="UTF-8" standalone="no"?>
<!-- Generator: Adobe Illustrator 21.0.2, SVG Export Plug-In . SVG Version: 6.00 Build 0)  -->

<svg
   xmlns:dc="http://purl.org/dc/elements/1.1/"
   xmlns:cc="http://creativecommons.org/ns#"
   xmlns:rdf="http://www.w3.org/1999/02/22-rdf-syntax-ns#"
   xmlns:svg="http://www.w3.org/2000/svg"
   xmlns="http://www.w3.org/2000/svg"
   xmlns:sodipodi="http://sodipodi.sourceforge.net/DTD/sodipodi-0.dtd"
   xmlns:inkscape="http://www.inkscape.org/namespaces/inkscape"
   version="1.1"
   id="_x37_688duo"
   x="0px"
   y="0px"
   viewBox="0 0 161.3 73.7"
   style="enable-background:new 0 0 161.3 73.7;"
   xml:space="preserve"
   sodipodi:docname="7688.svg"
   inkscape:version="0.92.2 2405546, 2018-03-11"><metadata
   id="metadata181"><rdf:RDF><cc:Work
       rdf:about=""><dc:format>image/svg+xml</dc:format><dc:type
         rdf:resource="http://purl.org/dc/dcmitype/StillImage" /></cc:Work></rdf:RDF></metadata><defs
   id="defs179" /><sodipodi:namedview
   pagecolor="#ffffff"
   bordercolor="#666666"
   borderopacity="1"
   objecttolerance="10"
   gridtolerance="10"
   guidetolerance="10"
   inkscape:pageopacity="0"
   inkscape:pageshadow="2"
   inkscape:window-width="2560"
   inkscape:window-height="1001"
   id="namedview177"
   showgrid="false"
   inkscape:zoom="3.732176"
   inkscape:cx="80.650002"
   inkscape:cy="79.720431"
   inkscape:window-x="0"
   inkscape:window-y="0"
   inkscape:window-maximized="1"
   inkscape:current-layer="g166" />
<style
   type="text/css"
   id="style2">
	.st0{fill:#B8AF82;}
	.st1{fill:#BCBEC0;}
	.st2{fill:#808080;}
	.st3{fill:#CCCCCC;}
	.st4{fill:#999999;}
	.st5{opacity:0.1;fill:#FFFFFF;enable-background:new    ;}
	.st6{font-family:'LucidaSansUnicode';}
	.st7{font-size:12px;}
	.st8{fill:#FFFFFF;}
</style>
<g
   id="g174">
	<g
   id="g172">
		<g
   id="g170">
			<g
   id="g60">
				<g
   id="g6">
					<path
   class="st0"
   d="M39.1,8.6"
   id="path4" />
				</g>
				<g
   id="g10">
					<path
   class="st0"
   d="M46.3,8.6"
   id="path8" />
				</g>
				<g
   id="g14">
					<path
   class="st0"
   d="M53.5,8.6"
   id="path12" />
				</g>
				<g
   id="g18">
					<path
   class="st0"
   d="M60.7,8.6"
   id="path16" />
				</g>
				<g
   id="g22">
					<path
   class="st0"
   d="M67.8,8.6"
   id="path20" />
				</g>
				<g
   id="g26">
					<path
   class="st0"
   d="M75,8.6"
   id="path24" />
				</g>
				<g
   id="g30">
					<path
   class="st0"
   d="M82.2,8.6"
   id="path28" />
				</g>
				<g
   id="g34">
					<path
   class="st0"
   d="M89.4,8.6"
   id="path32" />
				</g>
				<g
   id="g38">
					<path
   class="st0"
   d="M96.6,8.6"
   id="path36" />
				</g>
				<g
   id="g42">
					<path
   class="st0"
   d="M103.7,8.6"
   id="path40" />
				</g>
				<g
   id="g46">
					<path
   class="st0"
   d="M110.9,8.6"
   id="path44" />
				</g>
				<g
   id="g50">
					<path
   class="st0"
   d="M118.1,8.6"
   id="path48" />
				</g>
				<g
   id="g54">
					<path
   class="st0"
   d="M125.3,8.6"
   id="path52" />
				</g>
				<g
   id="g58">
					<path
   class="st0"
   d="M132.5,8.6"
   id="path56" />
				</g>
			</g>
			<g
   id="g122">
				<g
   id="g64">
					<path
   class="st0"
   d="M31.9,68.5"
   id="path62" />
				</g>
				<g
   id="g68">
					<path
   class="st0"
   d="M39.1,68.5"
   id="path66" />
				</g>
				<g
   id="g72">
					<path
   class="st0"
   d="M46.3,68.5"
   id="path70" />
				</g>
				<g
   id="g76">
					<path
   class="st0"
   d="M53.5,68.5"
   id="path74" />
				</g>
				<g
   id="g80">
					<path
   class="st0"
   d="M60.7,68.5"
   id="path78" />
				</g>
				<g
   id="g84">
					<path
   class="st0"
   d="M67.8,68.5"
   id="path82" />
				</g>
				<g
   id="g88">
					<path
   class="st0"
   d="M75,68.5"
   id="path86" />
				</g>
				<g
   id="g92">
					<path
   class="st0"
   d="M82.2,68.5"
   id="path90" />
				</g>
				<g
   id="g96">
					<path
   class="st0"
   d="M89.4,68.5"
   id="path94" />
				</g>
				<g
   id="g100">
					<path
   class="st0"
   d="M96.6,68.5"
   id="path98" />
				</g>
				<g
   id="g104">
					<path
   class="st0"
   d="M103.7,68.5"
   id="path102" />
				</g>
				<g
   id="g108">
					<path
   class="st0"
   d="M110.9,68.5"
   id="path106" />
				</g>
				<g
   id="g112">
					<path
   class="st0"
   d="M118.1,68.5"
   id="path110" />
				</g>
				<g
   id="g116">
					<path
   class="st0"
   d="M125.3,68.5"
   id="path114" />
				</g>
				<g
   id="g120">
					<path
   class="st0"
   d="M132.5,68.5"
   id="path118" />
				</g>
			</g>
			<g
   id="g168">
				<rect
   x="30.1"
   y="10.3"
   class="st1"
   width="107"
   height="56.5"
   id="rect124" />
				<g
   id="g138">
					<polygon
   class="st2"
   points="136,11.3 136,11.3 136,65.8 136,65.8 137,66.8 137,10.3      "
   id="polygon126" />
					<polygon
   class="st3"
   points="31.1,11.3 31.1,11.3 31.1,65.8 31.1,65.8 30.1,66.8 30.1,10.3      "
   id="polygon128" />
					<g
   id="g132">
						<polygon
   class="st3"
   points="135.7,10.3 30.1,10.3 31.1,11.3 135.7,11.3 136,11.3 136,11.3 136,11.3 137,10.3       "
   id="polygon130" />
					</g>
					<g
   id="g136">
						<polygon
   class="st4"
   points="135.7,66.8 30.1,66.8 31.1,65.8 135.7,65.8 136,65.8 136,65.8 136,65.8 137,66.8       "
   id="polygon134" />
					</g>
				</g>
				<polyline
   class="st5"
   points="31.1,65.8 31.1,65.8 31.1,11.3 31.1,11.3 31.4,11.3 136,11.3     "
   id="polyline140" />
				<g
   id="g166">
 HEAD
					<text
   transform="matrix(1 0 0 1 35.5 28.5798)"
   class="st6 st7"
   id="text142">MiCa7688</text>

=======
					
&gt;&gt;&gt;&gt;&gt;&gt;&gt; xetal/master
					<g
   id="g164">
						<g
   id="g162">
							<g
   id="g160">
								<g
   id="g158">
									<g
   id="g150">
										<path
   class="st8"
   d="M129.6,60.5c-1.2,0-2.2-1-2.2-2.2s1-2.2,2.2-2.2c0.7,0,1.4,0.4,1.8,0.9h0.9c-0.5-1-1.5-1.7-2.7-1.7            c-1.5,0-2.8,1.1-3,2.6c-0.2,0-1.8,0-1.9,0s-0.1,0-0.1,0s0-1.3,0-1.5c0-0.1,0.2-0.2,0.2-0.2s1.8,0,1.9,0s0,0,0,0v-1l0,0            c0,0-1.8,0-2.3,0c-0.2,0-0.5,0.2-0.6,0.4c-0.2,0.2-0.2,0.5-0.2,0.5s0,5,0,5.1s0.1,0.1,0.1,0.1s0.7,0,0.8,0s0,0,0,0v-2.5            c0-0.1,0,0,0,0h1.9c0.2,1.5,1.4,2.6,3,2.6c1.2,0,2.2-0.7,2.7-1.7h-1C130.9,60.1,130.3,60.5,129.6,60.5"
   id="path146" />
										<path
   class="st8"
   d="M129.6,57.2c0.4,0,0.7,0.2,0.9,0.4h0.9c-0.3-0.7-0.9-1.2-1.7-1.2c-1,0-1.8,0.8-1.8,1.8            s0.8,1.8,1.8,1.8c0.8,0,1.5-0.5,1.7-1.2h-0.9c-0.2,0.2-0.5,0.4-0.8,0.4c-0.6,0-1-0.5-1-1C128.5,57.7,129,57.2,129.6,57.2"
   id="path148" />
									</g>
									<g
   id="g156">
										<path
   class="st8"
   d="M115.2,60.3v0.9c-0.1,0-0.2,0-0.3,0c-1.7,0-3.1-1.4-3.1-3.1c0-1.7,1.4-3.1,3.1-3.1c0.1,0,0.2,0,0.3,0            v0.9c-0.1,0-0.2,0-0.3,0c-1.2,0-2.2,1-2.2,2.2s1,2.2,2.2,2.2C115,60.4,115.1,60.4,115.2,60.3z"
   id="path152" />
										<path
   class="st8"
   d="M118,57.7h1.8v0.9H118c0.2,1,1.1,1.7,2.1,1.7c0.1,0,0.2,0,0.3,0v0.9c-0.1,0-0.2,0-0.3,0            c-1.7,0-3.1-1.4-3.1-3.1c0-1.7,1.4-3.1,3.1-3.1c0.1,0,0.2,0,0.3,0v0.9c-0.1,0-0.2,0-0.3,0C119.1,56,118.2,56.8,118,57.7z"
   id="path154" />
									</g>
								</g>
							</g>
						</g>
					</g>
				</g>
			</g>
		</g>
	</g>
</g>
</svg>